<?xml version="1.0" encoding="utf-8"?>
<!-- Generator: Adobe Illustrator 16.0.0, SVG Export Plug-In . SVG Version: 6.00 Build 0)  -->
<!DOCTYPE svg PUBLIC "-//W3C//DTD SVG 1.1//EN" "http://www.w3.org/Graphics/SVG/1.1/DTD/svg11.dtd">
<svg version="1.1" id="Layer_1" xmlns="http://www.w3.org/2000/svg" xmlns:xlink="http://www.w3.org/1999/xlink" x="0px" y="0px"
	 width="404.98px" height="404.98px" viewBox="0 0 404.98 404.98" enable-background="new 0 0 404.98 404.98" xml:space="preserve">
<rect x="0" fill="#4090DB" width="404.98" height="404.98"/>
<g>
	<path fill="#FFFFFF" d="M202.46,255.99c29.357,0,53.268-23.856,53.268-53.26c0-11.569-3.769-22.288-10.045-31.031
		c-9.68-13.394-25.429-22.184-43.223-22.184c-17.729,0-33.482,8.738-43.148,22.184c-6.338,8.743-10.046,19.462-10.104,31.031
		C149.207,232.134,173.116,255.99,202.46,255.99L202.46,255.99z"/>
	<path fill="#FFFFFF" d="M318.77,137.587V86.315h-6.696l-44.628,0.157l0.209,51.272L318.77,137.587z"/>
	<path fill="#FFFFFF" d="M301.312,371.255H103.624c-38.396,0-69.637-31.231-69.637-69.622V103.937
		c0-38.421,31.24-69.68,69.637-69.68h197.688c38.422,0,69.68,31.258,69.68,69.68v197.696
		C370.992,340.021,339.734,371.255,301.312,371.255z M103.624,49.025c-30.253,0-54.868,24.633-54.868,54.911v197.696
		c0,30.246,24.614,54.854,54.868,54.854h197.688c30.278,0,54.911-24.607,54.911-54.854V103.937
		c0-30.278-24.633-54.911-54.911-54.911L103.624,49.025L103.624,49.025z"/>
	<path fill="#FFFFFF" d="M285.234,202.73c0,45.622-37.094,82.768-82.774,82.768c-45.614,0-82.703-37.146-82.703-82.768
		c0-10.941,2.197-21.457,6.069-31.031h-45.15v123.896c0,16.011,12.963,28.933,28.984,28.933h185.619
		c16.01,0,28.984-12.922,28.984-28.933V171.699h-45.15C282.984,181.273,285.234,191.79,285.234,202.73L285.234,202.73z"/>
</g>
</svg>
