<?xml version="1.0" encoding="utf-8"?>
<!-- Generator: Adobe Illustrator 16.0.0, SVG Export Plug-In . SVG Version: 6.00 Build 0)  -->
<!DOCTYPE svg PUBLIC "-//W3C//DTD SVG 1.1//EN" "http://www.w3.org/Graphics/SVG/1.1/DTD/svg11.dtd">
<svg version="1.1" id="Layer_1" xmlns="http://www.w3.org/2000/svg" xmlns:xlink="http://www.w3.org/1999/xlink" x="0px" y="0px"
	 width="404.98px" height="404.98px" viewBox="0 0 404.98 404.98" enable-background="new 0 0 404.98 404.98" xml:space="preserve">
<rect x="-6.369" y="-6.346" fill="#E62D27" width="419.359" height="419.359"/>
<g>
	<g>
		<path fill="#FFFFFF" d="M284.671,190.452c-1.856,0-3.738,0.881-5.624,2.742v37.941c1.886,1.884,3.768,2.775,5.624,2.775
			c3.253,0,4.908-2.775,4.908-8.399v-26.562C289.579,193.329,287.924,190.452,284.671,190.452z"/>
		<path fill="#FFFFFF" d="M325.9,190.452c-3.767,0-5.652,2.877-5.652,8.633v5.764h11.274v-5.764
			C331.522,193.329,329.637,190.452,325.9,190.452z"/>
		<path fill="#FFFFFF" d="M356.689,166.078c0,0-1.82-12.761-7.396-18.379c-7.071-7.375-15.001-7.412-18.637-7.844
			c-26.027-1.872-65.07-1.872-65.07-1.872h-0.08c0,0-39.047,0-65.073,1.872c-3.637,0.433-11.563,0.469-18.639,7.844
			c-5.577,5.618-7.391,18.379-7.391,18.379s-1.861,14.983-1.861,29.968v14.049c0,14.981,1.861,29.966,1.861,29.966
			s1.814,12.761,7.391,18.38c7.076,7.376,16.371,7.143,20.509,7.912c14.88,1.424,63.241,1.864,63.241,1.864
			s39.084-0.06,65.111-1.932c3.636-0.432,11.565-0.469,18.637-7.845c5.576-5.619,7.396-18.38,7.396-18.38s1.855-14.984,1.855-29.966
			v-14.049C358.545,181.062,356.689,166.078,356.689,166.078z M213.538,243.304H200.99v-71.778h-13.267v-11.762h39.322v11.762
			h-13.508V243.304z M258.009,243.304h-11.283v-6.789c-4.487,5.142-8.743,7.646-12.889,7.646c-3.638,0-6.139-1.476-7.269-4.629
			c-0.617-1.885-0.993-4.861-0.993-9.258v-49.216h11.274v45.826c0,2.643,0,4.019,0.104,4.386c0.275,1.748,1.133,2.64,2.637,2.64
			c2.267,0,4.63-1.744,7.135-5.277v-47.574h11.283V243.304z M300.856,224.624c0,5.757-0.385,9.904-1.138,12.541
			c-1.505,4.629-4.523,6.996-9.015,6.996c-4.009,0-7.89-2.227-11.657-6.89v6.032h-11.275v-83.54h11.275v27.285
			c3.642-4.482,7.51-6.749,11.657-6.749c4.491,0,7.51,2.363,9.015,7.026c0.753,2.503,1.138,6.618,1.138,12.513V224.624z
			 M342.799,214.237h-22.551v11.033c0,5.761,1.886,8.64,5.757,8.64c2.775,0,4.394-1.511,5.037-4.524
			c0.104-0.615,0.252-3.117,0.252-7.645h11.505v1.649c0,3.632-0.138,6.137-0.239,7.267c-0.379,2.499-1.266,4.76-2.637,6.755
			c-3.12,4.522-7.747,6.749-13.638,6.749c-5.899,0-10.391-2.125-13.651-6.376c-2.396-3.114-3.624-8.022-3.624-14.637v-21.802
			c0-6.652,1.09-11.519,3.486-14.667c3.262-4.26,7.752-6.38,13.509-6.38c5.658,0,10.147,2.121,13.308,6.38
			c2.356,3.148,3.486,8.015,3.486,14.667V214.237z"/>
	</g>
	<path fill="#FFFFFF" d="M74.764,209.28v34.187H62.125V209.28c-1.146-6.055-3.675-14.932-7.726-26.707
		c-2.667-7.828-5.44-15.689-8.104-23.517h13.299l8.972,33.147l8.622-33.147h12.779L74.764,209.28z M117.72,237.895
		c-3.153,4.289-7.59,6.438-13.3,6.438c-5.679,0-10.118-2.149-13.267-6.438c-2.425-3.146-3.57-8.107-3.57-14.792v-22.031
		c0-6.723,1.145-11.639,3.57-14.817c3.148-4.3,7.588-6.448,13.267-6.448c5.71,0,10.147,2.148,13.3,6.448
		c2.387,3.178,3.536,8.095,3.536,14.817v22.031C121.256,229.787,120.107,234.748,117.72,237.895z M109.856,198.785
		c0-5.821-1.761-8.723-5.436-8.723s-5.439,2.902-5.439,8.723v26.461c0,5.819,1.764,8.73,5.439,8.73s5.436-2.911,5.436-8.73V198.785z
		 M151.384,243.467v-6.86c-4.535,5.201-8.862,7.727-13.023,7.727c-3.667,0-6.2-1.489-7.337-4.674
		c-0.627-1.907-1.012-4.911-1.012-9.353v-49.744h11.365v46.314c0,2.673,0,4.061,0.137,4.433c0.25,1.766,1.146,2.667,2.677,2.667
		c2.278,0,4.669-1.764,7.194-5.334v-48.08h11.397v62.904H151.384z"/>
</g>
</svg>
