<?xml version="1.0" encoding="utf-8"?>
<!-- Generator: Adobe Illustrator 16.0.0, SVG Export Plug-In . SVG Version: 6.00 Build 0)  -->
<!DOCTYPE svg PUBLIC "-//W3C//DTD SVG 1.1//EN" "http://www.w3.org/Graphics/SVG/1.1/DTD/svg11.dtd">
<svg version="1.1" id="Layer_1" xmlns="http://www.w3.org/2000/svg" xmlns:xlink="http://www.w3.org/1999/xlink" x="0px" y="0px"
	 width="404.98px" height="404.98px" viewBox="0 0 404.98 404.98" enable-background="new 0 0 404.98 404.98" xml:space="preserve">
<g>
	<g>
		<defs>
			<rect id="SVGID_1_" x="-0.485" y="-0.071" width="404.806" height="404.811"/>
		</defs>
		<clipPath id="SVGID_2_">
			<use xlink:href="#SVGID_1_"  overflow="visible"/>
		</clipPath>
		
			<linearGradient id="SVGID_3_" gradientUnits="userSpaceOnUse" x1="-1128.2537" y1="2761.1768" x2="-1127.843" y2="2761.1768" gradientTransform="matrix(601.8342 -621.2177 620.6193 601.2545 -1034577.5 -2360690.75)">
			<stop  offset="0" style="stop-color:#A92417"/>
			<stop  offset="1" style="stop-color:#D53E2A"/>
		</linearGradient>
		<polygon clip-path="url(#SVGID_2_)" fill="url(#SVGID_3_)" points="208.328,607.044 606.623,195.92 195.504,-202.374 
			-202.789,208.748 		"/>
	</g>
	<g>
		<defs>
			<rect id="SVGID_4_" x="-0.485" y="-0.071" width="404.806" height="404.811"/>
		</defs>
		<clipPath id="SVGID_5_">
			<use xlink:href="#SVGID_4_"  overflow="visible"/>
		</clipPath>
		<rect x="-0.485" y="-0.071" clip-path="url(#SVGID_5_)" fill="none" width="404.806" height="404.811"/>
	</g>
	<g>
		<defs>
			<rect id="SVGID_6_" x="-0.485" y="-0.071" width="404.806" height="404.811"/>
		</defs>
		<clipPath id="SVGID_7_">
			<use xlink:href="#SVGID_6_"  overflow="visible"/>
		</clipPath>
		<g clip-path="url(#SVGID_7_)">
			<g>
				<g>
					<defs>
						<rect id="SVGID_8_" x="-0.485" y="-0.071" width="404.806" height="404.811"/>
					</defs>
					<clipPath id="SVGID_9_">
						<use xlink:href="#SVGID_8_"  overflow="visible"/>
					</clipPath>
					<path clip-path="url(#SVGID_9_)" fill="#922114" d="M79.661,479.683L79.661,479.683c-55.688,0-95.909-35.251-95.909-77.597
						c0-41.505,49.889-76.052,105.576-75.451c12.995,0.139,25.107,2.229,36.104,5.788c30.229,21.022,51.915,32.903,58.03,56.862
						c1.15,4.857,1.776,9.854,1.776,14.961C185.24,446.592,157.952,479.683,79.661,479.683 M94.298,231.336L94.298,231.336
						c-37.384-1.117-72.906-41.818-79.359-90.899C8.486,91.346,33.55,53.773,70.926,54.89c37.369,1.123,72.907,40.51,79.362,89.594
						C156.734,193.576,131.665,232.454,94.298,231.336z M171.807,304.031c-13.112-9.284-38.191-31.861-38.191-45.133
						c0-15.551,4.438-23.213,27.849-41.504c23.996-18.75,40.973-45.104,40.973-75.769c0-36.497-16.252-72.072-46.766-83.807h45.998
						l32.468-23.471c0,0-108.812,0-145.087,0c-65.044,0-126.264,49.28-126.264,106.364c0,58.334,44.34,105.412,110.518,105.412
						c4.601,0,9.072-0.091,13.45-0.406c-4.296,8.224-7.366,17.481-7.366,27.099c0,16.211,8.722,29.354,19.75,40.082
						c-8.332,0-16.379,0.242-25.153,0.242c-80.569,0-142.582,51.312-142.582,104.522c0,52.403,67.98,85.186,148.552,85.186
						c91.854,0,142.58-52.114,142.58-104.523C222.535,356.307,210.133,331.139,171.807,304.031z"/>
				</g>
				<g>
					<g>
						<defs>
							<rect id="SVGID_10_" x="-0.485" y="-0.071" width="404.806" height="404.811"/>
						</defs>
						<clipPath id="SVGID_11_">
							<use xlink:href="#SVGID_10_"  overflow="visible"/>
						</clipPath>
						<g clip-path="url(#SVGID_11_)">
							<g>
								<g>
									<defs>
										<path id="SVGID_12_" d="M79.661,473.816L79.661,473.816c-55.688,0-95.909-35.253-95.909-77.601
											c0-41.505,49.889-76.051,105.576-75.45c12.995,0.139,25.107,2.229,36.104,5.789c30.229,21.022,51.915,32.902,58.03,56.859
											c1.15,4.857,1.776,9.854,1.776,14.962C185.24,440.724,157.952,473.816,79.661,473.816 M94.298,225.468L94.298,225.468
											c-37.384-1.116-72.906-41.817-79.359-90.898C8.486,85.478,33.55,47.905,70.926,49.022
											c37.369,1.123,72.907,40.51,79.362,89.595C156.734,187.708,131.665,226.587,94.298,225.468z M171.807,298.163
											c-13.112-9.285-38.191-31.861-38.191-45.133c0-15.552,4.438-23.212,27.849-41.505
											c23.996-18.749,40.973-45.104,40.973-75.768c0-36.495-16.252-72.071-46.766-83.807h45.998l32.468-23.47
											c0,0-108.812,0-145.087,0c-65.044,0-126.264,49.28-126.264,106.364c0,58.33,44.34,105.412,110.518,105.412
											c4.601,0,9.072-0.091,13.45-0.405c-4.296,8.224-7.366,17.482-7.366,27.099c0,16.211,8.722,29.356,19.75,40.083
											c-8.332,0-16.379,0.24-25.153,0.24c-80.569,0-142.582,51.312-142.582,104.522c0,52.403,67.98,85.188,148.552,85.188
											c91.854,0,142.58-52.116,142.58-104.524C222.535,350.438,210.133,325.271,171.807,298.163z"/>
									</defs>
									<clipPath id="SVGID_13_">
										<use xlink:href="#SVGID_12_"  overflow="visible"/>
									</clipPath>
									
										<linearGradient id="SVGID_14_" gradientUnits="userSpaceOnUse" x1="-1129.8054" y1="2763.9414" x2="-1129.3468" y2="2763.9414" gradientTransform="matrix(-305.2627 713.9425 -569.8242 -243.6416 1230214.5 1480153.5)">
										<stop  offset="0" style="stop-color:#FCFCFC"/>
										<stop  offset="1" style="stop-color:#FAE3E2"/>
									</linearGradient>
									<polygon clip-path="url(#SVGID_13_)" fill="url(#SVGID_14_)" points="-21.804,-80.954 -237.953,424.57 187.35,606.419 
										403.494,100.894 									"/>
								</g>
								<g>
									<g>
										<defs>
											<rect id="SVGID_15_" x="-0.485" y="-0.071" width="404.806" height="404.811"/>
										</defs>
										<clipPath id="SVGID_16_">
											<use xlink:href="#SVGID_15_"  overflow="visible"/>
										</clipPath>
										<polygon clip-path="url(#SVGID_16_)" fill="#922114" points="403.538,99.909 340.344,99.909 340.344,37.213 
											308.232,37.213 308.232,99.909 244.409,99.909 244.409,132.398 308.232,132.398 308.232,196.221 340.344,196.221 
											340.344,132.358 403.538,132.358 										"/>
									</g>
									<g>
										<g>
											<defs>
												<rect id="SVGID_17_" x="-0.485" y="-0.071" width="404.806" height="404.811"/>
											</defs>
											<clipPath id="SVGID_18_">
												<use xlink:href="#SVGID_17_"  overflow="visible"/>
											</clipPath>
											<g clip-path="url(#SVGID_18_)">
												<g>
													<g>
														<defs>
															<polygon id="SVGID_19_" points="398.983,94.445 335.791,94.445 335.791,31.749 303.678,31.749 303.678,94.445 
																239.855,94.445 239.855,126.934 303.678,126.934 303.678,190.756 335.791,190.756 335.791,126.894 398.983,126.894 
																															"/>
														</defs>
														<clipPath id="SVGID_20_">
															<use xlink:href="#SVGID_19_"  overflow="visible"/>
														</clipPath>
														
															<linearGradient id="SVGID_21_" gradientUnits="userSpaceOnUse" x1="-1130.0466" y1="2763.9883" x2="-1129.4929" y2="2763.9883" gradientTransform="matrix(-173.4291 734.5119 -504.2663 -119.0647 1198131.5 1159196.125)">
															<stop  offset="0" style="stop-color:#FCFCFC"/>
															<stop  offset="1" style="stop-color:#FAE3E2"/>
														</linearGradient>
														<polygon clip-path="url(#SVGID_20_)" fill="url(#SVGID_21_)" points="248.259,-3.84 204.295,182.359 390.58,226.345 
															434.547,40.145 														"/>
													</g>
												</g>
											</g>
										</g>
									</g>
								</g>
							</g>
						</g>
					</g>
				</g>
			</g>
		</g>
	</g>
</g>
</svg>
